<?xml version="1.0" standalone="no"?>
<!DOCTYPE svg PUBLIC "-//W3C//DTD SVG 20010904//EN"
 "http://www.w3.org/TR/2001/REC-SVG-20010904/DTD/svg10.dtd">
<svg version="1.0" xmlns="http://www.w3.org/2000/svg"
 width="500.000000pt" height="500.000000pt" viewBox="0 0 500.000000 500.000000"
 preserveAspectRatio="xMidYMid meet">

<g transform="translate(0.000000,500.000000) scale(0.100000,-0.100000)"
fill="#000000" stroke="none">
<path d="M0 2500 l0 -2500 2500 0 2500 0 0 2500 0 2500 -2500 0 -2500 0 0
-2500z m3169 1063 c40 -56 50 -83 32 -83 -4 0 -21 19 -37 43 l-29 42 -3 -192
c-1 -106 -6 -193 -10 -193 -4 0 -19 14 -34 32 l-27 33 -1 -103 c0 -78 -3 -103
-12 -100 -9 3 -14 38 -16 118 -3 146 -1 153 43 110 l35 -34 0 158 c0 161 -4
175 -35 115 -9 -16 -23 -29 -31 -29 -9 0 -14 3 -12 8 11 26 82 132 89 132 4 0
26 -26 48 -57z m111 -89 c0 -23 3 -25 23 -20 119 35 147 39 204 27 120 -24
221 -100 265 -198 30 -68 7 -77 -26 -10 -31 65 -99 130 -164 160 -105 47 -302
16 -302 -47 0 -14 -4 -26 -10 -26 -6 0 -10 30 -10 70 0 40 4 70 10 70 6 0 10
-12 10 -26z m-1265 -40 c54 -25 103 -78 134 -143 24 -51 26 -67 26 -176 0
-138 -17 -190 -83 -258 -56 -58 -105 -80 -193 -85 -176 -10 -290 85 -320 267
-29 174 36 331 163 397 67 35 198 34 273 -2z m-1157 -10 c70 -35 105 -93 105
-174 0 -73 -26 -125 -82 -165 -39 -27 -52 -30 -139 -35 l-97 -5 0 -120 0 -120
43 -3 c23 -2 42 -7 42 -13 0 -5 -52 -9 -120 -9 -73 0 -120 4 -120 10 0 6 14
10 30 10 l30 0 0 315 0 315 -30 0 c-16 0 -30 5 -30 10 0 6 59 10 158 10 150 0
161 -1 210 -26z m517 7 c97 -45 139 -137 101 -224 -17 -39 -61 -82 -100 -97
l-30 -11 32 -19 c42 -25 61 -66 68 -142 9 -104 14 -126 31 -132 23 -9 43 12
43 45 0 15 5 31 10 34 21 13 10 -68 -12 -92 -28 -30 -89 -32 -118 -3 -22 22
-27 39 -34 132 -10 128 -47 168 -156 168 l-50 0 0 -145 0 -145 45 0 c25 0 45
-4 45 -10 0 -6 -47 -10 -120 -10 -73 0 -120 4 -120 10 0 6 14 10 30 10 l30 0
0 315 0 315 -30 0 c-16 0 -30 5 -30 10 0 6 61 10 163 10 137 0 168 -3 202 -19z
m1253 -7 c70 -35 105 -93 105 -174 0 -73 -26 -125 -82 -165 -39 -27 -52 -30
-139 -35 l-97 -5 0 -120 0 -120 43 -3 c23 -2 42 -7 42 -13 0 -5 -52 -9 -120
-9 -73 0 -120 4 -120 10 0 6 14 10 30 10 l30 0 0 315 0 315 -30 0 c-16 0 -30
5 -30 10 0 6 59 10 158 10 150 0 161 -1 210 -26z m916 -56 c57 -14 130 -91
150 -159 21 -70 20 -107 -4 -173 -23 -60 -78 -118 -139 -144 -20 -8 -65 -15
-101 -16 -54 0 -75 5 -119 29 -94 52 -136 130 -129 245 4 85 42 151 109 192
71 45 132 51 233 26z m276 -318 c0 -84 -4 -150 -9 -150 -5 0 -21 14 -35 31
l-26 31 0 -141 c0 -78 2 -141 4 -141 2 0 14 16 26 35 21 34 40 46 40 25 0 -17
-74 -130 -85 -130 -14 0 -95 133 -88 144 6 9 22 -6 55 -55 16 -23 17 -17 17
142 1 91 4 169 8 173 4 3 22 -8 40 -26 l33 -32 0 122 c0 75 4 122 10 122 6 0
10 -57 10 -150z m90 14 c0 -104 -2 -124 -15 -124 -13 0 -15 20 -15 123 0 68 3
127 6 130 18 18 24 -15 24 -129z m-781 15 c26 -147 147 -261 296 -276 41 -4
72 0 125 17 39 12 73 20 76 17 12 -12 -7 -25 -61 -42 -77 -24 -193 -18 -257
13 -110 54 -191 164 -204 276 -9 77 11 73 25 -5z m-2199 -724 c0 -67 -3 -85
-14 -85 -14 0 -17 11 -31 93 l-6 37 -119 0 -120 0 0 -145 0 -146 108 3 107 3
3 38 c2 24 8 37 18 37 11 0 14 -19 14 -95 0 -78 -3 -95 -15 -95 -11 0 -15 11
-15 40 l0 40 -110 0 -110 0 0 -150 0 -150 55 0 c30 0 55 -4 55 -10 0 -6 -52
-10 -135 -10 -83 0 -135 4 -135 10 0 6 16 10 35 10 l35 0 0 315 0 315 -29 0
c-17 0 -33 4 -36 10 -4 6 70 11 202 13 114 1 216 3 226 5 15 2 17 -8 17 -83z
m2152 65 c66 -25 78 -25 78 0 0 11 5 20 10 20 6 0 10 -39 10 -96 0 -91 -11
-117 -23 -56 -8 39 -53 92 -94 108 -42 18 -137 18 -171 0 -41 -21 -78 -65
-104 -121 -20 -44 -23 -65 -23 -180 0 -115 3 -136 23 -180 43 -93 101 -135
188 -135 102 0 148 51 148 165 l1 70 -45 6 c-27 4 1 6 70 6 63 0 105 -2 93 -4
-16 -3 -23 -11 -23 -28 0 -146 -100 -245 -245 -245 -137 0 -245 78 -284 205
-65 210 20 424 189 476 49 15 148 10 202 -11z m1058 -5 l49 -25 15 27 c14 26
15 23 16 -69 0 -54 -2 -98 -5 -98 -2 0 -9 18 -15 41 -6 22 -26 57 -44 77 -30
32 -40 36 -93 40 -76 5 -118 -15 -140 -65 -18 -44 -11 -90 19 -129 13 -16 65
-47 127 -76 151 -70 191 -114 191 -204 0 -69 -36 -125 -102 -158 -79 -40 -150
-35 -281 19 -14 6 -20 2 -24 -14 -12 -47 -23 -16 -23 69 0 88 12 118 25 62 17
-81 87 -131 180 -132 91 0 153 62 142 143 -8 56 -38 83 -163 142 -64 30 -119
63 -132 79 -70 89 -45 218 53 273 57 32 139 31 205 -2z m-2940 5 c0 -5 -13
-10 -30 -10 l-30 0 0 -315 0 -315 30 0 c17 0 30 -4 30 -10 0 -6 -43 -10 -110
-10 -62 0 -110 4 -110 9 0 6 15 11 33 13 l32 3 3 313 2 312 -35 0 c-19 0 -35
5 -35 10 0 6 43 10 110 10 67 0 110 -4 110 -10z m445 -9 c141 -65 149 -243 12
-312 l-40 -21 30 -19 c43 -27 64 -77 70 -167 6 -77 16 -112 33 -112 17 0 40
32 40 56 0 13 5 24 10 24 18 0 11 -57 -11 -84 -27 -35 -89 -37 -123 -3 -19 19
-24 38 -30 111 -11 146 -44 186 -156 186 l-50 0 0 -145 0 -145 40 0 c22 0 40
-4 40 -10 0 -6 -47 -10 -120 -10 -73 0 -120 4 -120 10 0 6 16 10 35 10 l35 0
0 315 0 315 -29 0 c-17 0 -33 5 -36 10 -4 7 52 10 162 10 142 0 174 -3 208
-19z m455 -250 c58 -148 108 -266 112 -263 6 6 110 269 190 480 l19 52 80 0
c51 0 78 -4 74 -10 -3 -5 -19 -10 -36 -10 l-29 0 0 -315 0 -315 35 0 c19 0 35
-4 35 -10 0 -6 -43 -10 -110 -10 -67 0 -110 4 -110 10 0 6 14 10 30 10 l30 0
-1 268 c0 176 -4 260 -10 247 -5 -11 -54 -135 -108 -275 -78 -202 -102 -256
-118 -258 -16 -2 -35 36 -130 275 l-112 278 0 -267 -1 -268 35 0 c19 0 35 -4
35 -10 0 -6 -35 -10 -85 -10 -50 0 -85 4 -85 10 0 6 14 10 30 10 l30 0 0 315
0 315 -30 0 c-16 0 -30 5 -30 10 0 6 32 10 78 10 l77 0 105 -269z m1573 241
c106 -66 132 -210 54 -299 -47 -54 -97 -73 -194 -73 l-83 0 0 -125 0 -125 39
0 c22 0 43 -4 46 -10 4 -6 -37 -10 -114 -10 -74 0 -121 4 -121 10 0 6 14 10
30 10 l30 0 0 315 0 315 -30 0 c-16 0 -30 5 -30 11 0 7 52 10 168 7 155 -3
170 -5 205 -26z"/>
<path d="M1828 3428 c-46 -12 -105 -69 -129 -123 -44 -99 -46 -269 -4 -368 19
-45 69 -103 106 -123 37 -19 113 -18 155 2 83 39 134 154 134 299 0 217 -115
354 -262 313z"/>
<path d="M640 3251 l0 -171 76 0 c73 0 77 1 109 33 69 69 72 195 5 270 -27 30
-33 32 -109 35 l-81 4 0 -171z"/>
<path d="M1160 3270 l0 -150 66 0 c40 0 79 6 100 16 66 31 94 135 57 211 -25
54 -65 73 -150 73 l-73 0 0 -150z"/>
<path d="M2410 3251 l0 -171 76 0 c73 0 77 1 109 33 69 69 72 195 5 270 -27
30 -33 32 -109 35 l-81 4 0 -171z"/>
<path d="M3440 3310 c0 -13 -7 -20 -18 -20 -43 0 -73 -74 -49 -120 7 -14 25
-31 40 -38 25 -12 27 -18 27 -73 0 -56 -1 -59 -19 -49 -11 5 -21 20 -23 32 -2
12 -9 23 -16 26 -10 3 -13 -5 -10 -29 2 -25 11 -39 35 -54 17 -11 34 -28 36
-37 7 -26 26 -22 37 6 5 13 18 27 29 31 24 7 34 37 29 86 -2 25 -11 39 -35 54
-30 19 -32 24 -33 78 0 72 22 74 44 4 8 -24 26 -12 26 17 0 26 -34 66 -55 66
-8 0 -15 9 -15 20 0 11 -7 20 -15 20 -8 0 -15 -9 -15 -20z m0 -101 c0 -43 -3
-50 -17 -47 -34 6 -25 98 8 98 5 0 9 -23 9 -51z m58 -121 c19 -19 15 -66 -8
-78 -19 -10 -20 -8 -20 40 0 51 6 60 28 38z"/>
<path d="M1430 2249 l0 -151 79 3 c68 4 83 8 107 29 55 51 68 124 35 197 -26
55 -62 73 -151 73 l-70 0 0 -151z"/>
<path d="M3450 2230 l0 -170 76 0 c73 0 77 1 109 33 72 72 72 202 0 274 -32
32 -36 33 -109 33 l-76 0 0 -170z"/>
</g>
</svg>
