<svg width="278" height="278" viewBox="0 0 278 278" fill="none" xmlns="http://www.w3.org/2000/svg">
<path fill-rule="evenodd" clip-rule="evenodd" d="M138.967 31.7765C139.893 33.2213 140.711 34.7201 141.42 36.2737C155.093 60.2167 168.857 84.0657 182.712 107.82C182.712 107.956 182.712 108.093 182.712 108.229C189.129 119.431 195.534 130.606 201.928 141.753C208.702 153.98 215.653 166.109 222.778 178.14C222.748 178.764 223.021 179.173 223.596 179.366C223.797 180.314 224.206 181.132 224.822 181.819C212.76 182.363 200.632 182.363 188.436 181.819C183.202 172.569 177.887 163.439 172.491 154.427C161.34 134.62 150.097 114.86 138.763 95.146C135.065 101.181 131.59 107.314 128.337 113.544C125.883 117.434 123.499 121.386 121.183 125.4C120.91 125.809 120.91 126.217 121.183 126.626C130.91 143.482 140.654 160.244 150.414 176.913C151.129 178.479 151.946 179.978 152.867 181.41C153.004 181.683 153.14 181.955 153.276 182.228C141.147 182.228 129.019 182.228 116.89 182.228C116.486 181.698 116.077 181.153 115.663 180.593C111.38 173.119 107.088 165.624 102.785 158.107C92.9603 174.76 83.3527 191.522 73.9622 208.393C73.9622 208.529 73.9622 208.666 73.9622 208.802C67.0901 220.088 60.4121 231.535 53.9292 243.144C53.6279 243.882 53.2191 244.563 52.7027 245.189C40.5771 245.597 28.4482 245.733 16.3164 245.597C16.5658 245.233 16.7019 244.824 16.7252 244.371C17.3001 244.177 17.5728 243.769 17.5429 243.144C19.7543 239.952 21.6623 236.545 23.2666 232.923C37.3395 209.005 51.1038 184.884 64.559 160.56C78.2509 137.267 91.7424 113.828 105.034 90.24C105.034 90.1038 105.034 89.9673 105.034 89.8311C115.22 72.3211 125.305 54.7412 135.287 37.0914C136.552 35.5186 137.506 33.7471 138.149 31.7765C138.516 31.3652 138.788 31.3652 138.967 31.7765Z" fill="#FEFEFE"/>
<path fill-rule="evenodd" clip-rule="evenodd" d="M241.585 213.708C242.602 213.602 243.284 214.011 243.629 214.935C248.645 224.035 253.824 233.03 259.165 241.918C259.476 242.682 259.885 243.363 260.391 243.962C260.414 244.415 260.55 244.824 260.8 245.189C203.632 245.597 146.395 245.733 89.0891 245.597C89.3385 245.233 89.4746 244.824 89.4979 244.371C90.0036 243.772 90.4125 243.09 90.7244 242.327C96.1419 233.264 101.457 224.133 106.669 214.935C106.805 214.662 106.942 214.39 107.078 214.117C151.913 214.022 196.749 213.886 241.585 213.708Z" fill="#FEFEFE"/>
</svg>
